<svg xmlns="http://www.w3.org/2000/svg" version="1.1" xmlns:xlink="http://www.w3.org/1999/xlink" xmlns:svgjs="http://svgjs.com/svgjs" width="44" height="44"><svg width="44" height="44" viewBox="0 0 44 44" fill="none" xmlns="http://www.w3.org/2000/svg">
<path d="M3.63086 2.04932C3.63086 0.944747 4.52629 0.0493164 5.63086 0.0493164H11.9963C13.1008 0.0493164 13.9963 0.944747 13.9963 2.04932V16.2581H3.63086V2.04932Z" fill="#B89FE5"></path>
<path d="M4.76025 40.3874H39.2385C39.8622 40.3874 40.3678 39.8818 40.3678 39.2581V18.8225C40.3678 18.4883 40.2199 18.1714 39.9638 17.9568L22.7247 3.51253C22.3051 3.16092 21.6937 3.16092 21.274 3.51252L4.03491 17.9568C3.7788 18.1714 3.63086 18.4883 3.63086 18.8225V39.2581C3.63086 39.8818 4.1365 40.3874 4.76025 40.3874Z" fill="#9261E8" stroke="#9261E8" stroke-width="5.5" stroke-linecap="round"></path>
</svg><style>@media (prefers-color-scheme: light) { :root { filter: none; } }
</style></svg>