<svg width="17" height="16" viewBox="0 0 17 16" fill="none" xmlns="http://www.w3.org/2000/svg">
<path fill-rule="evenodd" clip-rule="evenodd" d="M13.8337 3.33431H3.16699C2.7988 3.33431 2.50033 3.63279 2.50033 4.00098V12.001C2.50033 12.3692 2.7988 12.6676 3.16699 12.6676H13.8337C14.2018 12.6676 14.5003 12.3692 14.5003 12.001V4.00098C14.5003 3.63279 14.2018 3.33431 13.8337 3.33431ZM3.16699 2.00098C2.06242 2.00098 1.16699 2.89641 1.16699 4.00098V12.001C1.16699 13.1055 2.06242 14.001 3.16699 14.001H13.8337C14.9382 14.001 15.8337 13.1055 15.8337 12.001V4.00098C15.8337 2.89641 14.9382 2.00098 13.8337 2.00098H3.16699Z" fill="#777E91"/>
<path d="M5.83301 10.334C5.83301 10.8863 5.38529 11.334 4.83301 11.334C4.28072 11.334 3.83301 10.8863 3.83301 10.334C3.83301 9.7817 4.28072 9.33398 4.83301 9.33398C5.38529 9.33398 5.83301 9.7817 5.83301 10.334Z" fill="#777E91"/>
<path d="M9.16699 10.334C9.16699 10.8863 8.71928 11.334 8.16699 11.334C7.61471 11.334 7.16699 10.8863 7.16699 10.334C7.16699 9.7817 7.61471 9.33398 8.16699 9.33398C8.71928 9.33398 9.16699 9.7817 9.16699 10.334Z" fill="#777E91"/>
<path d="M1.16699 5.33398H15.8337V6.66732H1.16699V5.33398Z" fill="#777E91"/>
</svg>
