<svg width="21" height="20" viewBox="0 0 21 20" fill="none" xmlns="http://www.w3.org/2000/svg">
<path fill-rule="evenodd" clip-rule="evenodd" d="M9.69058 12.5012C10.1505 12.4839 10.5374 12.8426 10.5548 13.3025C10.5939 14.3394 10.6489 15.0961 10.7029 15.6387C10.7562 16.173 11.0787 16.4945 11.5284 16.5495C12.0586 16.6143 12.8065 16.6673 13.8329 16.6673C14.8593 16.6673 15.6073 16.6143 16.1375 16.5495C16.5869 16.4945 16.9096 16.1729 16.9629 15.6384C17.0632 14.6313 17.1662 12.8913 17.1662 10.0007C17.1662 7.10997 17.0632 5.36999 16.9629 4.36288C16.9096 3.82842 16.5869 3.50679 16.1375 3.45185C15.6073 3.38703 14.8593 3.33398 13.8329 3.33398C12.8065 3.33398 12.0586 3.38703 11.5284 3.45184C11.0787 3.50681 10.7562 3.8283 10.7029 4.36263C10.6489 4.90519 10.5939 5.66193 10.5548 6.69875C10.5374 7.15866 10.1505 7.51742 9.69058 7.50006C9.23067 7.4827 8.87191 7.09579 8.88928 6.63588C8.92945 5.57169 8.98641 4.78017 9.04447 4.19741C9.16651 2.97227 10.0207 1.95707 11.3261 1.79749C11.9338 1.72321 12.7503 1.66732 13.8329 1.66732C14.9156 1.66732 15.732 1.72321 16.3397 1.7975C17.6453 1.9571 18.4993 2.97278 18.6213 4.19767C18.7288 5.27622 18.8329 7.07438 18.8329 10.0006C18.8329 12.9269 18.7288 14.7251 18.6213 15.8036C18.4993 17.0285 17.6453 18.0442 16.3397 18.2038C15.732 18.2781 14.9156 18.334 13.8329 18.334C12.7503 18.334 11.9338 18.2781 11.3261 18.2038C10.0207 18.0442 9.16651 17.029 9.04447 15.8039C8.98641 15.2211 8.92945 14.4296 8.88928 13.3654C8.87191 12.9055 9.23067 12.5186 9.69058 12.5012Z" fill="#777E91"/>
<path fill-rule="evenodd" clip-rule="evenodd" d="M6.50625 12.3284C6.83168 12.6538 6.83168 13.1815 6.50625 13.5069C6.18081 13.8323 5.65317 13.8323 5.32774 13.5069L2.41107 10.5902C2.08563 10.2648 2.08563 9.73716 2.41107 9.41172L5.32774 6.49505C5.65317 6.16962 6.18081 6.16962 6.50625 6.49505C6.83168 6.82049 6.83168 7.34813 6.50625 7.67357L5.01217 9.16764H13.0003C13.4606 9.16764 13.8337 9.54074 13.8337 10.001C13.8337 10.4612 13.4606 10.8343 13.0003 10.8343L5.01217 10.8343L6.50625 12.3284Z" fill="#777E91"/>
</svg>
